<svg xmlns="http://www.w3.org/2000/svg" viewBox="0 0 2424.64 482.89"><defs><style>.a{fill:#dc0032;}.b{fill:#ffce00;}.c{fill:#fff;}.d{fill:#0c479d;}.e,.f{fill:#007a61;}.e{stroke:#007a61;}</style></defs><title>korkortonline.se</title><path class="a" d="M271.47,482.39a43.89,43.89,0,0,1-38-21.89L5.88,66.26A43.84,43.84,0,0,1,43.87.5H499.08a43.84,43.84,0,0,1,38,65.76L309.46,460.47a43.88,43.88,0,0,1-38,21.89Z"/><path class="b" d="M487.38,51.09l-215.91,374L55.56,51.09Z"/><path d="M1618.22,482.39H1418.61L1277.47,341.25V141.63L1418.61.5h199.61l141.14,141.13V341.25Z"/><path class="c" d="M1757,340.26,1617.23,480H1419.6L1279.86,340.26V142.63L1419.6,2.89h197.63L1757,142.63Z"/><path class="a" d="M1735.51,331.37,1608.34,458.53H1428.5L1301.33,331.37V151.52L1428.5,24.36h179.84l127.17,127.16Z"/><path class="c" d="M1452.6,196.39h-32.34V177.83H1503v18.56h-31.81V305.06H1452.6Zm180.77,108.67V177.83h41.35a35,35,0,0,1,0,70h-22.8v57.26ZM1517.8,264.5a41.09,41.09,0,1,0,82.17,0V218.39a41.09,41.09,0,1,0-82.17,0Zm-162.13-41.43a12,12,0,0,0,3,1.63l32.44,13.84a28,28,0,0,1,13.78,16.82,40,40,0,1,1-77.61,19.6c-.06-.21-.11-.43-.16-.64L1345,269a21.47,21.47,0,1,0,42.37-7c-.09-.55-.2-1.11-.34-1.65a9.49,9.49,0,0,0-3.28-4.62,9.36,9.36,0,0,0-1.54-.87l-30.58-13a30.85,30.85,0,0,1-7-3.9l-1.43-1.19A34.19,34.19,0,1,1,1398,198.94l-17,7.64a15.64,15.64,0,1,0-25.36,16.5Z"/><path class="a" d="M1581.42,264.5V218.39a22.54,22.54,0,0,0-45.07-.66V264.5a22.54,22.54,0,0,0,45.07,0ZM1675,229.25a16.44,16.44,0,1,0,.56-32.87h-23.62v32.87Z"/><path class="d" d="M1942.75.5h481.89V482.39H1942.75Z"/><path class="c" d="M1970.85.5a28.06,28.06,0,0,0-28.1,28V454.29a28.06,28.06,0,0,0,28,28.1h425.76a28.06,28.06,0,0,0,28.1-28V28.6a28.06,28.06,0,0,0-28-28.1H1970.85Z"/><path class="d" d="M1970.85,12.55a16,16,0,0,0-16,16V454.29a16,16,0,0,0,16,16h425.72a16.06,16.06,0,0,0,16.05-16h0V28.6a16,16,0,0,0-16-16H1970.85Z"/><path class="c" d="M1954.8,408.87,2183.7,12.55l228.89,396.32Z"/><path d="M2109.43,365.67,2103,391.52h51.8l3.4-48.59h-31.35Zm-122.51,25.85h51.8l20.65-48.59H2015Zm393.55,0h-51.8L2308,342.93h44.34Zm-134.54-40.47-7.39,15.86h22.17l6.13,24.59H2215l-3.37-48.57h35.08l6.89,6.3-7.71,1.84Z"/><path d="M2219,133.55a25.33,25.33,0,0,0-6.82-4.1c-4.05-1.76-8-3.67-12-5.7a9,9,0,0,1-5-4.66,23.87,23.87,0,0,1-1.11-9.08,59.49,59.49,0,0,1,2.65-10.24,34.49,34.49,0,0,0,.24-13.58,15.11,15.11,0,0,0-10.6-11.48,21.14,21.14,0,0,0-20.41,2.17,15.71,15.71,0,0,0-5,15.82,14.15,14.15,0,0,1,.24,4.81,19.14,19.14,0,0,0,4.49,17.84,10.38,10.38,0,0,0,5.24,1.42,4.2,4.2,0,0,1,4.49,3,4.06,4.06,0,0,1-.89,3.28q-5.22,4.5-10.7,8.68a34.13,34.13,0,0,0-5.61,5.4,18.15,18.15,0,0,0-2.58,7l-5.13,31.63-33.08,26.43-.39.31a7.42,7.42,0,1,0,8.93,11.85l7.71-5.5,2.41,2.17,25.39-19,5.78-9.72,2.41,34.86-77.54,123.34-14.7-3.21-7.23,6.58L2105.39,363l81.27-106.41,27.15,49.71L2259,347.67l-1.36,5.57-8.36,2-3.21,6.91h21.37l18.39-27.9L2254,301.89l-15.1-20.16-23.13-49a31.55,31.55,0,0,0-3.37-28.11,10.43,10.43,0,0,1-1-5.38l-.89-34.21,12.85,19.27,6.39,41.11a7.43,7.43,0,0,0,14.73-1.68l-.66-9,2.09-.48-4.58-42.41-18.15-32.93a19.2,19.2,0,0,0-4.18-5.38Z"/><rect class="e" x="728.93" y="0.5" width="361.42" height="481.89"/><rect class="c" x="728.93" y="0.5" width="361.42" height="481.89" rx="21.08"/><path class="f" d="M750,9.53h319.25a12.05,12.05,0,0,1,12,12V461.31a12.05,12.05,0,0,1-12,12.05H750a12.07,12.07,0,0,1-12-12.05V21.58a12.06,12.06,0,0,1,12-12Z"/><polygon class="c" points="955.49 166.16 933.42 36.65 918.36 36.65 923.16 166.16 955.49 166.16"/><polygon class="c" points="863.17 166.16 885.24 36.65 900.29 36.65 895.5 166.16 863.17 166.16"/><polygon class="c" points="1059.92 193.26 1014.74 193.26 1020.77 223.37 984.62 223.37 990.65 193.26 828.32 193.26 834.34 223.37 798.21 223.37 804.23 193.26 759.05 193.26 759.05 178.19 1059.92 178.19 1059.92 193.26"/><polygon class="c" points="933.42 443.24 925.28 223.37 965.23 223.37 1002.7 443.24 933.42 443.24"/><polygon class="c" points="853.42 223.37 893.37 223.37 885.24 443.24 815.96 443.24 853.42 223.37"/></svg>